<?xml version="1.0" encoding="utf-8"?>
<!-- Generator: Adobe Illustrator 22.0.1, SVG Export Plug-In . SVG Version: 6.00 Build 0)  -->
<svg version="1.1" id="Layer_1" xmlns="http://www.w3.org/2000/svg" xmlns:xlink="http://www.w3.org/1999/xlink" x="0px" y="0px"
	 viewBox="0 0 285.4 135.3" style="enable-background:new 0 0 285.4 135.3;" xml:space="preserve">
<style type="text/css">
	.st0{fill:#FFFFFF;}
</style>
<path class="st0" d="M79.2,49.6C79.2,49.6,79.2,49.7,79.2,49.6C79.2,49.7,79.2,49.6,79.2,49.6"/>
<path class="st0" d="M79.1,50.9c0.1-0.1,0.2-0.1,0.2-0.2h0C79.2,50.8,79.2,50.9,79.1,50.9"/>
<path class="st0" d="M79,51C79,51,79,51,79,51C79,51,79,51,79,51"/>
<path class="st0" d="M79,51c0,0-0.1,0-0.2,0C78.9,51,78.9,51,79,51"/>
<path class="st0" d="M79.1,50.9C79.1,51,79,51,79.1,50.9C79,51,79.1,51,79.1,50.9"/>
<path class="st0" d="M82.9,65.8c-0.2-0.3-0.3-0.6-0.5-1c-0.5-1.3-1.2-2.9-3.4-3.6c0,0,0,0-0.1,0c-2.1-0.4-12.9-2-13.4-2
	c-0.3,0-0.7,0.2-0.7,0.5c-0.1,0.3,0.1,0.7,0.5,0.8c0.5,0.1,11.7,3.2,13,3.5c0,0,0.1,0,0.1,0c0.6,0.1,1.2,1.5,1.6,2.4
	c0.1,0.2,0.2,0.4,0.3,0.6c3.4,8.7,7.2,21.9,5.9,24.2c-0.2,0.1-0.7,0.4-1.8,0.4c-2.2,0-4.9-0.9-7.5-2.4c-1-2.1-1.9-3.9-2.6-5.4
	c0.5-0.4,1.2-1.1,2.4-2.4l3,2.8c1.4,1.3,1.9,1.3,2.1,1.3c0.2,0,0.4-0.1,0.5-0.2c0.9-0.8-0.4-2.8-0.4-2.8c-0.6-0.9-3.3-3.4-3.6-3.7
	c0,0,0,0,0,0c0,0-0.3-0.2-0.8-0.5l-0.1,0c-0.2-0.1-0.5-0.2-0.9-0.3c-0.1,0-0.2,0-0.3,0c-0.7,0-1.5,0.7-1.7,1.1c0,0,0,0,0,0
	c-0.3-0.5-0.7-1-1.3-1.7c-0.4-0.3-0.8-1.1-2.1-1.8c-0.1-0.1-0.4-0.1-0.6-0.2c-2.5-5.2-7.5-15.7-12.9-26.9c-0.4-0.9-0.9-1.8-1.3-2.7
	c0.8-1.2,0.8-2.5,0.8-3.1c0-0.3-0.2-1-0.4-1.4c0.4-1.8,0.8-3.5,1-4.2c3.4-8.6,11.2-11.6,17.4-11.6c1.7,0,3.3,0.2,4.8,0.6
	c3.1,0.9,6.9,4.2,8.6,7.6c2.1,4.2,2,9.5-0.2,15c-1,2.7-6.6,9.4-6.7,9.5c-0.1,0.2-0.1,0.4,0,0.6c0.1,0.1,0.2,0.2,0.4,0.2
	c0.1,0,0.2,0,0.2-0.1c0.2-0.1,4.6-2.5,8.6-8.5c3.5-5.2,3.8-12.4,0.7-18.6c-2.3-4.5-6.1-7.9-10.6-9.1C79,22.3,76.8,22,74.5,22
	c-9.8,0-17.2,5.4-19.8,14.5c-0.2,0.9-0.4,1.7-0.5,2.6c-0.2-0.1-0.4-0.1-0.6-0.2c-0.1,0-0.2,0-0.2,0.1c-0.1,0.1-0.2,0.2-0.3,0.3
	c-1.5-3.2-3-6.4-4.3-9.3c-0.7-1.6-1.5-3.1-2.2-4.7c-0.7-1.3-1.4-2.8-2.1-4.3c-1.7-3.6-2.4-5-3-5.4c-0.3-0.2-0.6-0.2-0.9-0.2
	c-1,0-2,0.8-2.3,1.8c0,0,0,0,0,0.1c-0.2,1,0.2,1.7,0.4,2.1c0.1,0.1,0.1,0.2,0.1,0.3c0,0,0,0,0,0.1l1.4,3c3,6.4,5.2,11,7.5,15.6
	c-0.3,0.1-0.7,0.2-1,0.4c-0.7,0.5-1,1-1.1,1.2c0,0-0.6,1-0.9,1.6c0,0-0.2-0.4-0.3-0.4c-0.2-0.3-1-0.8-1.7-0.6
	c-0.2,0.1-0.4,0.1-0.5,0.2c0,0,0,0-0.1,0c0,0,0,0,0,0c-0.4,0.2-0.7,0.4-1,0.6c-0.1,0.1-0.2,0.1-0.3,0.2c-2.4,1.8-5.1,4.2-8,7.1
	c-0.2,0.2-0.4,0.4-0.6,0.6c-1.1,1.1-2.2,2.3-3.1,3.9c-0.3,0.3-0.4,0.8-0.3,1.5c0,0.2,0.2,1.1,0.7,1.5c0.4,0.4,0.7,0.7,1,1
	c0.7,0.6,1.4,1.2,2.1,1.7l0.1,0.1c1.2,0.9,2.4,1.8,3.6,2.7c1.6,1.2,3.2,2.4,4.6,3.5c4.5,4,7.4,8.7,8.2,10.8l0.1,0.3
	c0.8,2.1,1.7,4.5,3.4,5.9c0,0,0.1,0.1,0.1,0.1c-0.7,0.5-1.3,1.1-1.8,1.9c-1,1.1-2.1,4.7-2.6,6.7c-0.8,2.6-1.7,4.8-1.7,4.9
	c0,0.1,0,0.1,0,0.2c-0.3,1.1-4.1,8.4-5.3,9.9c0,0,0,0,0,0c-0.1,0.2-0.3,0.4-0.4,0.6c-1.5,2.1-2.7,3.7-1.7,4.6
	c0.2,0.2,0.4,0.2,0.6,0.2c0.8,0,1.5-0.9,2.7-2.5c0.3-0.4,0.6-0.8,0.9-1.1c1.5-1.4,5.5-9,6-10.9l0,0c0,0,0.9-2.4,1.8-5.1
	c0.9-3.3,1.7-5.4,2.1-5.8c0,0,0,0,0.1-0.1c0.3-0.4,1-1,1.5-1.6c0.2-0.2,0.4-0.4,0.6-0.6c0.2,0.1,0.5,0.1,0.7,0.1h0
	c0.1,0,5.6-0.3,6.1-1.1c0.1-0.2,0.2-0.5,0-0.7c-0.2-0.4-0.7-0.4-1.2-0.4h-0.1c-0.8,0.1-3.3-0.4-4.5-0.7c-0.9-0.2-1.3-0.3-1.9-1
	c-1.3-1.2-2.1-3-2.9-5.2c-0.6-1.4-3-6.4-9-11.9c-1.5-1.2-3.1-2.4-4.7-3.6c-1.1-0.9-2.3-1.8-3.5-2.7l0,0c-0.7-0.5-1.4-1.1-2-1.6
	c-0.2-0.2-0.4-0.3-0.5-0.5c-0.1-0.1-0.2-0.2-0.3-0.2c0.8-1.2,2-2.5,3.1-3.6l0,0c2.8-2.8,5.3-5.1,7.6-6.8c0,0,0.2-0.1,0.2-0.2
	c0,0,0.7,1,1.1,1.5c0.9,1.2,1.7,2.3,2.5,3.4l0.3,0.4c-0.2,0.2-0.4,0.5-0.5,0.7c-0.6,0.7-1.2,1.2-1.7,1.7l-0.1,0.1
	c-0.7,0.7-1.3,1.1-1.5,1.3c0,0-0.1,0.1-0.2,0.2l0,0c-0.1,0-0.2,0.2-0.4,0.4l-0.1,0.1c-0.1,0.1-0.3,0.3-0.4,0.4
	c-0.2,0.1-0.3,0.3-0.4,0.4c0,0-0.1,0.1-0.1,0.1c-0.1,0.1-0.6,0.9-0.2,1.6c0,0,0,0,0,0.1c0.4,0.5,0.7,0.8,1.2,0.8c0,0,0,0,0.1,0
	l13.7,1.9c0.3,0,0.7-0.2,0.7-0.5c0.1-0.3-0.1-0.7-0.5-0.8c-1-0.2-7.5-2-11.2-2.9c0.3-0.2,0.7-0.6,1.2-1.1v0l0.1-0.1
	c0.5-0.5,1.2-1.1,1.9-1.9c0.1-0.1,0.1-0.1,0.2-0.2c0.3-0.4,0.7-0.8,1-1.5c0.2-0.4,0.3-1.1,0-1.7c0.4,0.1,1,0.2,1.7,0.2
	c0.5,0,1,0,1.6-0.2c3.8,8.1,6.8,14.4,12.3,25.2c0.5,1,1.3,2.5,2.2,4.2c-0.4-0.4-0.6-1-0.7-0.9c0,0-0.1-0.1-0.4-0.4
	C66,76,65.6,75.6,65,75.8c-0.4,0.1-0.7,0.5-0.9,0.8c-0.4,1.2-0.3,2.5,0,3.8c0.3,1.3,1,2.8,2.3,3.5c1.2,0.6,3.3,0.9,4.5,0.6
	c0.8,1.5,1.2,2.5,2.1,4.2c1.4,2.7,3.5,6.9,5.8,11.1c1,1.9,2,3.9,3.1,5.9l1.6,3l0.8,1.5l0,0.1c0.1,0.2,0.3,0.5,0.5,0.7c0,0,0,0,0,0
	l0.1,0.1c0.2,0.2,0.6,0.5,1,0.5h0c0.5,0,0.9-0.3,1-0.8c0-0.1,0-0.2,0-0.2c0-0.3,0-0.5-0.2-0.7l-0.2-0.4c-2.7-5.7-5.2-11.2-7.5-15.9
	c0.2,0.1,0.5,0.2,0.7,0.3c0.9,0.4,2.6,0.7,4.1,0.7c1.4,0,3.4-0.2,4.4-1.4c0,0,0,0,0,0C91.7,88.6,83.3,66.8,82.9,65.8
	C83,65.8,83,65.8,82.9,65.8 M54.5,45.3c-0.1,0.1-0.3,0.3-0.5,0.4c-0.6,0.4-1.4,0.6-2,0.7c-0.2,0-0.4,0-0.6,0c-0.6,0-1.2-0.1-1.5-0.2
	c-0.8-0.2-1.4-0.3-2.1-0.4c-0.5-0.6-1.6-2-2.1-2.6c0,0,1.2-2.4,1.3-2.7c0.1-0.3,0.8-0.9,1.2-0.1c-0.1,0.8,0.1,1.7,1.2,2.6
	c0.2,0.2,0.5,0.4,0.9,0.4c0.2,0.1,0.4,0.1,0.7,0.1c0.5,0,1-0.1,1.4-0.2c0.7-0.2,1.3-0.9,1.7-1.6c0-0.1,0.1-0.3,0.2-0.4
	c0.3,0.5,0.9,1.2,0.9,1.6C55.3,43.4,55.3,44.6,54.5,45.3 M73.4,81.5c-0.2,0.2-0.5,0.4-0.7,0.5c-0.7,0.4-1.5,0.7-2.1,0.8
	c-0.2,0-0.6,0.1-1.4,0.1c-1.2-0.1-3.1-0.7-3.5-2.9c-0.2-1.2-0.3-1.8-0.2-2.3c0.1,0.2,0.4,0.5,0.8,1c0.3,0.4,1.1,0.7,1.9,0.7
	c2.5,0.1,3.3-1.1,3.5-1.4c0,0,0,0,0.1,0c0.2,0.2,0.3,0.4,0.5,0.5c0.6,0.7,1.1,1.3,1.6,1.6c0.2,0.2,0.4,0.3,0.6,0.3
	C74.1,80.7,73.5,81.4,73.4,81.5"/>
<path class="st0" d="M40.3,75.4c0.3-3.5-0.1-6.9-0.1-6.9c-0.2-0.9-0.9-0.8-1,0.1c0,0-0.7,5.3-0.9,6.3c-0.4,1.9-1,4-1.6,6.4
	c-0.7,2.5-2.1,7.6-4.2,13.7c-0.4,1.2-0.9,2.5-1.4,3.8c0.2-3.7-0.1-7.1-0.4-9.8c-0.6-5.2-1.5-8.5-1.5-8.5
	c-0.1,0.1-2.5-13.5-10.5-26.1c-2-3.1-4-6.1-4.4-9.4c-0.4-3.2,0.8-6.4,2.2-9.1c2.8-5.5,8-7.1,10.4-7.8c4.4-1.3,7.8-0.1,10.5,2
	c2.5,1.9,4.5,4.3,6.8,7c0.2,0.3,0.4,0.2,0.2-0.1c-1.8-3.1-3.3-5.9-5.8-8.3c-2.6-2.7-6.8-4.4-12.5-3c-1.3,0.3-3.3,1-5.6,2.3
	c-2.3,1.3-4.7,3.7-6.3,6.7c-1.5,3-3,6.6-2.5,10.7c0.5,4.1,2.9,7.4,4.8,10.4c7.7,12.1,10.1,25.4,10.2,25.3c0,0,0.8,3.2,1.4,8.2
	c0.6,5,1,12-1.2,18.6c-0.3,0.8-1.8,5-1.8,5c-0.5,1,0.5,1.8,1.4,1c0.9-0.8,2.2-2.7,2.4-3.2c0.9-1.7,1.7-3.4,2.4-5.1
	c1.4-3.4,2.6-6.7,3.7-9.8c2.1-6.1,3.5-11.3,4.2-13.9C39.7,79.5,40.1,77.4,40.3,75.4"/>
<path class="st0" d="M103.2,80.9c0,0.1,0.5-2.2,1.5-5.8H102c-0.9,3.2-1.3,5.3-1.3,5.2c0,0-0.8,3.3-1.5,8.4c-0.3,2.8-0.6,6.2-0.4,9.9
	c-0.5-1.3-0.9-2.6-1.4-3.9c-2.1-6.1-3.5-11.2-4.2-13.7c-0.6-2.3-1.2-4.4-1.6-6.4c-0.2-1-0.9-6.3-0.9-6.3c-0.1-0.8-0.8-1-1-0.1
	c0,0-0.4,3.4-0.1,6.9c0.2,2,0.5,4.1,1.2,6.5c0.7,2.6,2.1,7.7,4.2,13.9c1,3.1,2.3,6.4,3.7,9.8c0.7,1.7,1.5,3.4,2.4,5.1
	c0.2,0.4,1.5,2.3,2.4,3.2c0.9,0.8,1.8,0.1,1.4-1c0,0-1.6-4.2-1.8-5c-2.2-6.6-1.7-13.7-1.2-18.6C102.4,84,103.2,80.9,103.2,80.9"/>
<path class="st0" d="M115.6,34.4c-1.6-3-4-5.4-6.3-6.7c-2.3-1.3-4.1-2-5.5-2.4c-5.1-1.4-10.4,0.4-13,3.1c-0.7,0.6-0.3,0.8,0.8,0.1
	c2-0.9,6.7-2.3,11.4-0.8c2.3,0.8,7.5,2.3,10.3,7.9c0.9,1.7,1.7,3.6,2.1,5.6h2.6C117.7,38.7,116.7,36.4,115.6,34.4"/>
<path class="st0" d="M77.5,43.9c0.1,0,0.3-0.1,0.7-0.5c0.1-0.5,0.2-0.8,0-0.8c-0.1-0.1-0.9-0.4-0.9-0.4c0,0-0.7-0.3-0.9-0.4
	c-0.1,0-0.3,0.2-0.6,0.6c-0.1,0.5-0.1,0.8,0,0.8c0.1,0.1,0.8,0.3,0.8,0.3S77.3,43.9,77.5,43.9"/>
<path class="st0" d="M80.1,49.4L80.1,49.4h0.2c0.2,0,0.5,0,0.9-0.3c0,0,0,0,0,0c0.4-0.4,0.4-0.7,0.5-1c0,0,0-0.1,0-0.2v0
	c0-0.9,0-1.8,0-2.5c0-0.9,0-1.6,0-2c0.1-0.6,0.1-1.1,0.1-1.6c0.5,0.2,1,0.3,1.5,0.3c0.8,0,1.6-0.3,2.3-0.8c0,0,0,0,0,0
	c1-1.1,0.6-2.8,0.3-3.2c-0.3-0.6-0.4-0.8-0.4-0.9c0,0,0,0,0,0v0c-0.3-0.5-0.8-1.5-1.8-2.7c-0.9-1.5-3.5-3.8-6.5-3.8h-0.3
	c-2.9,0-6,1.2-7.9,2.9c-1.8,1.5-3.1,3-3.9,4c-2.3,3-3,5.1-3.6,8.2c0,0.1,0,0.2,0.2,0.3c0.1,0,0.3,0,0.3-0.1c1.5-2.7,2.6-4.4,4.7-7.1
	l0.1-0.1c1.2-1.5,4.9-6,9.9-6c0.1,0,0.1,0,0.2,0H77c2.6,0,4.2,1.6,5.1,3c0.6,0.8,1.2,1.7,1.6,2.4c0,0.1,0,0.1,0.1,0.2
	c0.5,0.8,0.6,1.4,0.3,1.6c0,0,0,0-0.1,0.1c0,0-0.1,0.1-0.4,0.1c-0.4,0-1-0.1-1.5-0.3c-0.5-0.2-1-0.5-1.6-0.9c-0.6-0.3-1.2-0.7-1.8-1
	c-0.8-0.4-1.9-0.9-3.2-0.9c-0.5,0-1.1,0.1-1.6,0.3c-1.2,0.7-1.9,1.6-2.4,2.4c-0.2,0.2-0.4,0.5-0.6,0.7c-1.5,2.1-2.7,3.5-3.3,4
	c-2.6,2.6-4.1,3.6-6.8,4.7c-0.1,0-0.2,0.2-0.2,0.3c0,0.1,0.1,0.2,0.3,0.2h0c3.3-0.1,5.6-1.2,8.2-3.7c0.8-0.8,2.2-2.4,3.5-4.3
	l0.3-0.3c0.6-0.8,1.3-1.8,1.9-2.1c0.6-0.3,1.7-0.1,3,0.6c0.5,0.2,1.1,0.5,1.7,0.9c0.3,0.2,0.7,0.4,1,0.6c-0.3,0.6-0.5,1.2-0.6,1.9
	C80,43.7,80,44.6,80,45.7c0,0.7,0,1.4,0,2h0c-0.3,0-0.5,0-0.8,0l-0.2,0c-0.4-0.1-1,0.1-1.2,0.7c-0.1,0.1-0.1,0.2-0.1,0.3L77.6,49
	c0,0.1-0.1,0.2-0.1,0.3C77.3,49.8,77,51,76.3,52c-0.2,0.5-0.5,0.7-1,0.7c-0.5,0-1.1-0.3-1.5-0.4c-0.1-0.1-0.3-0.1-0.3-0.1
	c-1.1-0.5-1.8-0.7-2.8-1c-0.1,0-0.2,0-0.3,0.1c-0.1,0.1-0.1,0.2,0,0.3c0.7,1,1.2,1.6,2.3,2.2l0.1,0.1c0.4,0.2,0.9,0.4,1.7,0.6
	c0.2,0.1,0.4,0.1,0.6,0.1c1,0,2.2-0.7,2.5-1.5c0.8-1.3,1.2-2.6,1.3-3.2c0-0.1,0-0.2,0.1-0.2c0,0,0,0.1-0.1,0.1c0,0,0.1-0.1,0.1-0.1
	c0,0,0,0,0-0.1c0,0,0,0,0-0.1C79.5,49.5,79.7,49.5,80.1,49.4"/>
<path class="st0" d="M202.9,83.1l-0.6-1.7l-1-2.7l-1-2.8l-1.1-2.8l-0.3-0.8c0,0-0.1-0.5-0.7-0.4l-1.9,0c0,0-0.4,0-0.6,0.5l-1.4,3.7
	l-2.1,5.5l-1,2.5c0,0-0.2,0.5,0,0.6c0,0,0.1,0.1,0.3,0.1l1.6,0c0,0,0.6,0.1,0.7-0.4c0.2-0.4,0.6-1.7,0.6-1.7l0.2-0.4
	c0,0,0.1-0.5,0.8-0.5l1.9,0h1.4l0.4,0c0,0,0.5,0,0.7,0.3l0.4,1.2l0.3,0.9c0,0,0.1,0.5,0.6,0.4l1.5,0h0.4c0,0,0.5,0,0.4-0.4
	L202.9,83.1z M198.3,79.5h-1l-1.1,0c-0.5,0-0.4-0.5-0.4-0.5l0.1-0.2l0.6-1.8l0.6-1.6c0.3-0.5,0.5,0,0.5,0l0.6,1.7l0.6,1.8
	C199,79.5,198.3,79.5,198.3,79.5"/>
<path class="st0" d="M243,83.2l-0.6-1.7l-1-2.7l-1-2.8l-1.1-2.8l-0.3-0.8c0,0-0.1-0.5-0.7-0.4l-1.9,0c0,0-0.4,0-0.6,0.5l-1.4,3.7
	l-2.1,5.5l-1,2.5c0,0-0.2,0.5,0,0.6c0,0,0.1,0.1,0.3,0.1l1.6,0c0,0,0.6,0,0.7-0.4c0.2-0.4,0.6-1.7,0.6-1.7l0.2-0.4
	c0,0,0.1-0.5,0.8-0.5l1.9,0h1.4l0.4,0c0,0,0.5,0,0.7,0.3l0.4,1.2l0.3,0.9c0,0,0.1,0.5,0.6,0.4l1.5,0h0.4c0,0,0.5,0,0.4-0.4L243,83.2
	z M238.4,79.5l-1,0l-1.1,0c-0.5,0-0.4-0.5-0.4-0.5l0.1-0.2l0.6-1.8l0.6-1.6c0.3-0.5,0.5,0,0.5,0l0.6,1.7l0.6,1.8
	C239.1,79.6,238.4,79.5,238.4,79.5"/>
<path class="st0" d="M157.3,72.3v-0.1c0,0,0-0.4-0.5-0.4l-1.6,0h-0.1c0,0-0.3,0-0.4,0.3c-0.1,0.3,0,0.9,0,0.9l0,6.4
	c0,0,0,0.9-0.4,0.4l-0.3-0.4l-0.6-0.9l-0.9-1.4l-1.1-1.8l-1.2-1.9l-0.7-1.1l-0.1-0.2c0,0-0.1-0.2-0.6-0.2c-0.4,0-1.9,0-1.9,0
	s-0.4,0-0.5,0.3c0,0,0,0.1,0,0.1v2.6v4V83v1.2c0,0,0,0.5,0.6,0.4h1.5c0,0,0.5,0,0.5-0.3c0-0.3,0-1.1,0-1.1v-6.1l0-0.3l0-0.1
	c0,0,0.1-0.5,0.4-0.2c0,0,0,0,0,0.1l0.6,0.9l1.6,2.6l2.2,3.6l0.2,0.4c0,0,0.2,0.4,0.7,0.4h1.7l0.2,0c0,0,0.5,0,0.5-0.4l0-1.9
	L157.3,72.3z"/>
<path class="st0" d="M131.5,72.4c0,0,0-0.5-0.5-0.5h-3c0,0-0.1,0-0.3,0.1c-0.1,0.1-0.1,0.1-0.3,0.5l-2.4,7.4l-0.1,0.2
	c0,0-0.1,0.4-0.4,0.1c0,0-0.1-0.1-0.1-0.3c-0.1-0.2-0.5-1.4-0.5-1.4l-2.1-6l-0.1-0.2c0,0-0.1-0.4-0.6-0.3h-2.9c0,0-0.5,0-0.5,0.6
	v5.1v1.9v4.5v0.3c0,0,0,0.5,0.5,0.4h1.6c0,0,0.6,0.1,0.6-0.4v-1.7v-3.2v-2.3c0,0,0-0.6,0.3-0.5c0,0,0.2,0.1,0.4,0.7
	c0.2,0.6,0.4,1.2,0.4,1.2l0.6,1.8l1.1,3.1l0.3,1l0.1,0.2c0,0,0.1,0.2,0.4,0.2h1.5c0,0,0.3,0,0.4-0.2c0.1-0.2,0.2-0.6,0.2-0.6
	l0.6-1.7l1.2-3.5l0.6-1.6l0.2-0.4c0,0,0.3-0.5,0.3,0c0.1,0.5,0.1,1,0.1,1v6.6c0,0,0,0.4,0.5,0.4h1.6h0.1c0,0,0.4,0,0.4-0.4
	c0-0.4,0-1.7,0-1.7V72.4z"/>
<path class="st0" d="M162.2,79.8v-2.7v-2.8v-2.2c0-0.4-0.5-0.4-0.5-0.4h-0.1h-1.6c-0.6,0-0.5,0.5-0.5,0.5v0.4v11l0,0.5
	c0,0.6,0.5,0.6,0.5,0.6h1.7c0.6,0,0.6-0.6,0.6-0.6V79.8z"/>
<path class="st0" d="M180,79.9v-2.7v-2.8v-2.2c0-0.4-0.5-0.4-0.5-0.4h-0.1h-1.6c-0.6,0-0.5,0.5-0.5,0.5v0.4v11l0,0.5
	c0,0.6,0.5,0.6,0.5,0.6h1.7c0.6,0,0.6-0.6,0.6-0.6V79.9z"/>
<path class="st0" d="M217.4,79.9v-2.7v-2.8v-2.2c0-0.4-0.5-0.4-0.5-0.4h-0.1h-1.6c-0.6,0-0.5,0.5-0.5,0.5v0.4v11l0,0.5
	c0,0.6,0.5,0.6,0.5,0.6h1.7c0.6,0,0.6-0.6,0.6-0.6V79.9z"/>
<path class="st0" d="M143.9,71.8h-1.4H142c0,0-0.4,0-0.4,0.4v1.9v2.7v3.1c0,0,0,1.1-0.4,1.7c-0.3,0.5-0.6,0.7-1.4,0.9
	c-0.7,0.2-1.7,0-2.1,0c-0.4-0.1-1-0.4-1.4-1.3c0,0-0.2-0.3-0.2-2.6v-6.1v-0.2c0,0,0-0.4-0.5-0.4h-1.7h-0.2c0,0-0.4,0-0.4,0.6v0.9v7
	c0,0,0,1.6,1,2.9c1,1.3,2.5,1.5,2.8,1.6c0.3,0,2.1,0.4,3.6-0.1c1.5-0.4,3.3-1.5,3.4-4.3c0,0,0-1,0-1.2v-6.8v-0.2
	C144.4,72.3,144.4,71.8,143.9,71.8"/>
<path class="st0" d="M213.4,83v-0.2c0,0,0-0.4-0.3-0.4H212h-2.7h-1.5c0,0-0.4,0-0.5-0.2c0,0-0.1-0.2-0.1-0.8v-1.7v-1.8v-2.2v-2.2
	v-1.1c0,0,0-0.3-0.2-0.4c0,0,0-0.1-0.8-0.1h-1.3c0,0-0.4,0-0.5,0.3c0,0,0,0.1,0,0.4l0,0.3v8.8v2.6c0,0-0.1,0.5,0.5,0.5h1.7h2.4h2.7
	h1.3c0,0,0.4,0,0.3-0.5V83z"/>
<path class="st0" d="M175.2,79.8c-0.7,0-1.5,0-1.5,0h-0.2c0,0-0.4,0-0.6,0.5c-0.2,0.5-0.4,1.5-1.4,2.1c-0.5,0.3-1.7,0.6-3-0.1
	c-1.4-0.7-1.7-2.5-1.8-2.8c0,0-0.1-0.5-0.1-1.1h0c0-0.6,0.1-1.1,0.1-1.1c0.1-0.4,0.4-2.1,1.8-2.8c1.4-0.7,2.5-0.4,3-0.1
	c0.5,0.2,1,0.8,1.2,1.4c0.2,0.5,0.6,0.5,0.6,0.5h0.2c0,0,0.8,0,1.5,0c0.7,0,0.5-0.5,0.5-0.7c0-0.2-0.4-1.1-0.7-1.6
	c-0.4-0.5-1.2-1.7-3.5-2.1c-2.3-0.4-4,0.5-4.9,1.2c-0.9,0.7-1.9,2-2.2,3.7c-0.1,0.7-0.2,1.2-0.2,1.7h0c0,0.5,0,1.1,0.2,1.7
	c0.3,1.6,1.3,3,2.2,3.7c0.9,0.7,2.7,1.6,4.9,1.2c2.3-0.4,3.1-1.6,3.5-2.1c0.4-0.5,0.9-2.1,0.9-2.3C175.7,80.3,175.9,79.8,175.2,79.8
	"/>
<path class="st0" d="M192,77.6c0,0,0.3-0.6,0.2-1.8c0-1.2-0.7-2.2-0.7-2.2s-0.6-0.9-1.7-1.3c0,0-0.9-0.3-2.2-0.3h-3.3h-1.7
	c0,0-0.5,0-0.5,0.5v2.2v2.8v6.6c0,0,0,0.3,0.1,0.4c0.1,0.1,0.1,0.3,0.8,0.2h1.2h0.3c0,0,0.3,0,0.4-0.3c0,0,0.1-0.3,0-0.6v-0.7v-1.8
	v-0.7c0,0,0-0.3,0.3-0.5c0,0,0.1,0,0.5,0h1.4h1.1c0,0,0.7,0,1.2-0.2c0.6-0.2,1.6-0.6,1.9-1.1C191.3,78.9,191.8,78.3,192,77.6
	 M189.5,76.3c-0.1,0.6-0.3,1.1-0.9,1.4c-0.5,0.3-1.4,0.3-1.4,0.3h-1.7c-0.7,0-0.7-0.6-0.7-0.6v-0.7v-1.3c0,0,0-0.4,0-0.9
	c0-0.4,0.6-0.4,0.6-0.4h1.6c1.6,0,2,0.6,2,0.6C189.7,75.4,189.5,76.3,189.5,76.3"/>
<path class="st0" d="M227.7,72.5c0,0-1.2-0.6-2.5-0.6h-3.9H220c0,0-0.5,0-0.5,0.6l0,5.6v5v1.1c0,0,0,0.5,0.3,0.6c0,0,0.1,0,0.2,0
	h0.7h1.5h1.5h1.1c0,0,1.4,0,2.4-0.4c1-0.4,1.8-0.9,2.4-2c0.7-1.1,0.8-1.6,1-3.5c0.2-1.9-0.7-4-0.7-4S229.4,73.3,227.7,72.5
	 M227.9,80.1c-0.3,1.2-1.2,1.8-1.2,1.8c-0.8,0.6-1.8,0.5-1.8,0.5s-1.5,0-2,0c-0.5,0-0.5-0.4-0.5-0.4v-0.1v-1.7v-3.3l0-2.3
	c0-0.4,0.6-0.4,0.6-0.4h0.9c1.9-0.1,2.8,0.6,2.8,0.6c0.9,0.7,1.1,1.4,1.4,2.6C228.2,78.7,227.9,80.1,227.9,80.1"/>
<path class="st0" d="M255,74.8c0,0-0.7-1.5-2.4-2.4c0,0-1.2-0.6-2.5-0.6h-3.9h-1.3c0,0-0.5,0-0.5,0.5l0,5.6v5v1.1c0,0,0,0.5,0.3,0.6
	c0,0,0.1,0,0.2,0h0.7h1.5h1.5h1.1c0,0,1.4,0,2.4-0.4c1-0.4,1.8-0.9,2.4-2c0.7-1.1,0.8-1.6,1-3.5C255.9,76.9,255,74.8,255,74.8
	 M252.7,80c-0.3,1.2-1.2,1.8-1.2,1.8c-0.8,0.6-1.8,0.5-1.8,0.5s-1.5,0-2,0c-0.5,0-0.5-0.4-0.5-0.4v-0.1v-1.7v-3.3l0-2.3
	c0-0.4,0.6-0.4,0.6-0.4h0.9c1.9-0.1,2.8,0.6,2.8,0.6c0.9,0.7,1.1,1.4,1.4,2.6C253,78.7,252.7,80,252.7,80"/>
<path class="st0" d="M112.7,51.3h1.1c0,0,1.1,0.1,0.9-1c-0.2-1.1-0.7-2-0.7-2s-1-2.1-3.6-3c-2.6-0.9-5.4-0.6-5.8-0.5
	c-0.5,0.1-2.8,0.5-4.4,2.2c-1.5,1.7-1.5,2.8-1.5,3.3c0,0-0.2,1.7,0.4,2.9c0.6,1.2,1.1,1.7,2.5,2.5c1.4,0.8,4.3,1.4,4.8,1.6
	c0.5,0.1,2.6,0.7,2.9,0.9c0,0,1.7,0.7,1.6,2.3c0,0-0.2,1.5-1.6,2c0,0-1.1,0.5-2.4,0.5c-1.3,0-2.1-0.4-2.1-0.4s-1.5-0.4-2.2-1.9
	c0,0-0.2-0.5-0.3-0.8c0,0,0-0.2-0.1-0.3c0-0.1-0.1-0.6-1.1-0.5L99,59c0,0-1-0.1-0.9,0.8c0,0.8,0.3,1.5,0.3,1.6c0.1,0.2,0.3,1,1.1,2
	c0.8,1,2.2,1.9,3.7,2.4c1.5,0.5,3.7,0.6,3.7,0.6s2.3,0,3.7-0.5c1.4-0.5,1.9-0.7,3-1.6c1.1-0.9,1.5-1.9,1.8-3.2
	c0.3-1.2,0.2-2.7-0.4-3.8c-0.5-1.1-1.6-2-2.5-2.6c-1-0.6-3.8-1.2-4.8-1.5c-1.1-0.3-2.2-0.6-3.6-1.2c0,0-1.7-0.9-0.4-3
	c0,0,0.8-1.1,2.9-1c2.2,0.1,3,1,3,1s0.5,0.6,0.8,1.4l0.1,0.2c0,0,0.1,0.4,0.4,0.5c0.4,0.1,0.8,0.1,0.8,0.1H112.7z"/>
<path class="st0" d="M135.6,65.8l-0.7-1.9l-1-2.7l-1.6-4.4l-1.6-4.5l-1.7-4.6l-0.5-1.3c0,0-0.2-0.8-1.1-0.7l-3.1,0
	c0,0-0.7-0.1-1,0.8l-2.3,5.9l-3.4,8.9l-1.5,4.1c0,0-0.3,0.8,0,1c0,0,0.1,0.1,0.5,0.1l2.6,0c0,0,0.9,0.1,1.2-0.6c0.3-0.7,1-2.7,1-2.7
	l0.2-0.7c0,0,0.1-0.8,1.2-0.7l3,0h2.2l0.6,0c0,0,0.9-0.1,1.1,0.5l0.7,2l0.5,1.5c0,0,0.2,0.8,1.1,0.7l2.4,0h0.6
	C135,66.5,135.8,66.4,135.6,65.8 M127.4,57.9l-1.7,0l-1.8,0c-0.8,0-0.6-0.8-0.6-0.8l0.1-0.4l1-2.9l1-2.6c0.4-0.8,0.8,0,0.8,0l1,2.7
	l1,2.9C128.5,58,127.4,57.9,127.4,57.9"/>
<path class="st0" d="M145.7,59.3l3.6,5.9l0.4,0.6c0,0,0.4,0.7,1.1,0.6h2.7l0.3,0c0,0,0.8,0,0.8-0.6l0-3.1l0-16.3v-0.2
	c0,0,0-0.6-0.8-0.6l-2.6,0h-0.2c0,0-0.5,0-0.6,0.5c-0.1,0.5,0,1.4,0,1.4l0,10.4c0,0,0,1.4-0.7,0.6l-0.5-0.7l-1-1.5l-1.4-2.3
	l-1.8-2.9l-2-3.2l-1.1-1.8l-0.2-0.2c0,0-0.2-0.4-0.9-0.4c-0.7,0-3,0-3,0s-0.6,0-0.8,0.5c0,0,0,0.1,0,0.2v4.2v6.5v6.7v2
	c0,0,0,0.8,0.9,0.7h2.4c0,0,0.9,0,0.9-0.5c0-0.5,0-1.8,0-1.8v-9.9l0-0.4l0-0.1c0,0,0.1-0.8,0.7-0.3c0,0,0,0,0.1,0.1l0.9,1.5
	L145.7,59.3z"/>
<path class="st0" d="M165.6,54.8v3.1v7.4v0.4c0,0,0,0.7,0.8,0.7h2.5c0,0,0.9,0.1,0.9-0.7V63v-5.2V54c0,0,0-1,0.4-0.8
	c0,0,0.2,0.1,0.6,1.1c0.3,1,0.6,1.9,0.6,1.9l1,2.9l1.8,5.1l0.6,1.6l0.1,0.4c0,0,0.1,0.3,0.6,0.3h2.3c0,0,0.4,0.1,0.7-0.3
	c0.2-0.4,0.4-0.9,0.4-0.9l0.9-2.8l2-5.7l0.9-2.6l0.3-0.7c0,0,0.4-0.8,0.5,0.1c0.1,0.9,0.1,1.6,0.1,1.6v10.7c0,0,0,0.7,0.9,0.7h2.6
	h0.1c0,0,0.6,0,0.6-0.7c0-0.7,0-2.7,0-2.7V46.4c0,0,0.1-0.8-0.9-0.7h-4.9c0,0-0.2,0-0.5,0.1c-0.2,0.2-0.2,0.1-0.5,0.8l-3.9,12
	l-0.1,0.3c0,0-0.2,0.6-0.7,0.1c0,0-0.1-0.1-0.2-0.4c-0.1-0.3-0.8-2.3-0.8-2.3l-3.3-9.7l-0.1-0.4c0,0-0.2-0.6-1-0.6h-4.8
	c0,0-0.8-0.1-0.8,0.9V54.8z"/>
<path class="st0" d="M191.4,64.8V47v-0.6c0,0-0.1-0.8,0.9-0.8h2.6h0.2c0,0,0.8-0.1,0.8,0.6v3.5v4.5v4.3v7.1c0,0,0,0.9-0.9,0.9h-2.8
	c0,0-0.8,0.1-0.7-0.9L191.4,64.8z"/>
<path class="st0" d="M217.8,58.2v7.1v0.4c0,0,0,0.8-0.8,0.8c-0.8,0-1.2,0-1.2,0s-0.6,0-0.8-0.4c0,0-0.2-0.4-0.3-0.8
	c0-0.4-0.4-0.9-1-0.3c-0.5,0.5-1.7,1.3-1.9,1.4c0,0-0.8,0.4-2.5,0.6c0,0-1.4,0.2-3.5-0.3c-2.1-0.5-4-1.9-4.7-2.8
	c0,0-1.8-2.1-2.2-4.3c-0.4-2.2-0.6-3.6-0.1-6.3c0.5-2.7,2.1-4.8,3.6-6c1.5-1.1,4.3-2.6,8-2c3.7,0.6,5,2.5,5.7,3.4
	c0.6,0.8,1.1,2.3,1.2,2.7c0.1,0.4,0.4,1.2-0.7,1.2c-1.1,0-2.5,0-2.5,0h-0.3c0,0-0.6,0.1-0.9-0.8c-0.3-0.9-1.1-1.8-2-2.2
	c-0.8-0.4-2.7-1-4.9,0.2c-2.2,1.1-2.7,4-2.8,4.6c0,0-0.5,3.6,0.5,5.5c0,0,0.6,1.4,1.3,2c0.7,0.6,2.5,2,5.5,1.2c0,0,2.1-0.3,2.9-2.9
	c0,0,0.1-0.5,0.1-0.7c0-0.2,0-0.7-0.9-0.7c-0.9,0-2.5,0-2.5,0h-0.4c0,0-0.7,0-0.7-0.6c0-0.6,0-2.1,0-2.1v-0.2c0,0,0-0.6,0.7-0.6
	c0.8,0,3.5,0,3.5,0h3.3c0,0,1.2-0.1,1.2,0.8C217.8,56.9,217.8,58.2,217.8,58.2"/>
<path class="st0" d="M220.9,48.1v11.4c0,0,0,2.7,1.6,4.7c1.6,2.1,4.1,2.5,4.6,2.5c0.4,0.1,3.4,0.6,5.9-0.1c2.5-0.7,5.3-2.5,5.6-6.9
	c0,0,0-1.7,0-2V46.6v-0.3c0,0,0-0.7-0.8-0.7h-2.3h-0.8c0,0-0.6,0-0.6,0.7v3.1v4.3v5c0,0,0,1.9-0.6,2.7c-0.6,0.9-1,1.2-2.2,1.5
	c-1.2,0.3-2.8,0.1-3.3-0.1c-0.6-0.1-1.7-0.7-2.2-2.1c0,0-0.3-0.5-0.3-4.3v-10v-0.3c0,0,0.1-0.7-0.9-0.7h-2.7h-0.3
	c0,0-0.7-0.1-0.7,0.9V48.1z"/>
<path class="st0" d="M241.9,52.1v13.6c0,0-0.1,0.8,0.8,0.8H257c0,0,0.7,0.1,0.7-1c0-1.1,0-1.9,0-1.9v-0.2c0,0,0-0.7-0.9-0.7h-3.7h-4
	h-1.8c0,0-0.7,0.1-0.8-0.8v-3v-0.8c0,0-0.1-0.7,1.1-0.7h3h3.5h1.7c0,0,0.7,0,0.7-0.8v-1.5v-0.5c0,0,0-0.8-0.8-0.8h-2.9h-3.6h-1.8
	c0,0-0.6,0-0.8-0.2c0,0-0.2-0.2-0.2-0.8v-2.3c0,0,0-0.4,0-0.5c0-0.1,0.1-0.6,0.9-0.6h2.4h2.9h3.9h0.4c0,0,0.6,0.1,0.7-0.7v-1.5v-1
	c0,0,0-0.6-0.7-0.6h-2.9h-2.9h-3.4h-3.6h-1.5c0,0-0.8,0-0.8,0.7v1.4L241.9,52.1z"/>
<path class="st0" d="M260.2,47.2v14.3v4.3c0,0-0.1,0.8,0.9,0.8h2.8h3.9h4.4h2.1c0,0,0.6,0,0.6-0.9v-1.9v-0.3c0,0,0.1-0.6-0.6-0.7
	h-1.7h-4.4h-2.5c0,0-0.6,0-0.8-0.3c0,0-0.2-0.4-0.2-1.3v-2.8v-2.9v-3.6v-3.6v-1.8c0,0,0-0.4-0.3-0.6c0,0-0.1-0.1-1.2-0.1h-2.1
	c0,0-0.6,0-0.8,0.4c0,0-0.1,0.2-0.1,0.6L260.2,47.2z"/>
</svg>
